<?xml version="1.0" encoding="UTF-8"?>
<svg id="uuid-3ee3859c-5551-4589-b351-cc8da5c291a0" data-name="Layer 2" xmlns="http://www.w3.org/2000/svg" viewBox="0 0 423.21 403.27">
  <defs>
    <style>
      .uuid-6df3f09d-a959-4f86-a660-f88da0963892 {
        fill: #231f20;
        stroke-width: 0px;
      }
    </style>
  </defs>
  <path class="uuid-6df3f09d-a959-4f86-a660-f88da0963892" d="m378.33,287.31c-6,9.14-11.48,17.48-16.37,24.93-4.73,7.25-8.9,13.64-12.45,19.09-3.46-2.31-6.53-4.36-9.19-6.14-2.83-1.87-5.22-3.45-7.14-4.72-1.93-1.27-3.42-2.22-4.42-2.84-.09-.06-.16-.09-.24-.15.44-.09.85-.21,1.27-.32.5-.18.97-.4,1.45-.6,1.82-.9,3.3-2.05,4.72-3.34.62-.65,1.26-1.29,1.85-1.93.56-.66,1.12-1.3,1.66-1.94,4.18-5.21,7.44-10.17,10.1-14.38,3.88-6.2,6.39-10.81,7.29-12.93l.45.23.14.07s.07-.06.11-.08l.21-.23.83-.91,1.18-1.31.96-1.09c.63-.73,1.26-1.45,1.89-2.16,19.83-23.08,33.1-43.79,41.19-58.58,1.96-3.73,3.76-7.01,5.1-9.97,1.38-2.93,2.59-5.39,3.38-7.46.84-2.05,1.46-3.61,1.87-4.67s.58-1.61.52-1.63c-.06-.02-.34.48-.85,1.49-.51,1.01-1.24,2.52-2.18,4.52-.89,2.01-2.2,4.41-3.67,7.28-1.43,2.89-3.31,6.11-5.36,9.77-8.41,14.49-21.94,34.88-41.88,57.6-.63.7-1.26,1.41-1.89,2.12-.57.63-1.15,1.26-1.73,1.9-.11.08-.19.3-.34.15l-.71-.38c-.87-.46-1.74-.92-2.61-1.39-3.51-1.86-7.09-3.76-10.76-5.7-7.33-3.87-14.97-7.9-22.88-12.08-15.84-8.33-32.82-17.24-50.8-26.52-9.01-4.63-18.19-9.4-27.82-14.06-1.22-.55-2.45-1.11-3.68-1.67-.59-.26-1.17-.51-1.73-.81-.56-.29-1.14-.57-1.67-.91-2.17-1.27-4.11-2.85-5.65-4.78-3.06-3.9-4.41-9.13-5.3-14.45-.25-1.34-.38-2.66-.54-4-.1-1.36-.24-2.71-.29-4.09-.16-2.75-.2-5.53-.23-8.33-.04-5.6.08-11.27.28-16.98.12-2.86.24-5.72.36-8.6.08-1.44.15-2.88.23-4.32l.03-.55c.02-.18,0-.35-.01-.55l-.02-.26-.09-1.06c-.07-.71-.12-1.41-.14-2.12-.15-2.83-.11-5.67.19-8.46.15-1.4.36-2.79.68-4.13.15-.68.33-1.34.53-1.99.1-.32.21-.64.33-.94l.11-.29c.07-.17.15-.34.23-.51l.48-1.01c-.36-.56-.7-1.1-1.02-1.64l-.47-.82c-.31-.55-.6-1.1-.89-1.66-.57-1.12-1.1-2.27-1.56-3.43-.47-1.16-.88-2.34-1.18-3.52-.33-1.18-.53-2.37-.6-3.53-.15-2.29.36-4.71,1.21-7.03.42-1.17.93-2.32,1.5-3.44.28-.53.57-1.07.87-1.59.6,1.96,1.65,4.9,3.05,8.59,2.54,6.81,6.34,16.13,10.12,26.48.89,2.58,1.82,5.13,2.43,7.53.63,2.46,1.13,4.94,1.66,7.29.52,2.36,1.05,4.62,1.67,6.72.62,2.1,1.33,4.04,2.1,5.77,1.58,3.44,3.44,5.92,4.89,7.42.7.77,1.35,1.28,1.79,1.61.45.33.73.45.82.36.09-.09,0-.38-.26-.86-.26-.48-.7-1.12-1.2-1.99-1.05-1.7-2.44-4.21-3.6-7.52-1.17-3.32-2.02-7.45-2.85-12.18-.44-2.37-.86-4.85-1.48-7.48-.63-2.69-1.55-5.26-2.47-7.92-3.84-10.53-8.03-19.69-11.2-26.27-.15-.31-.3-.61-.44-.9-.6-2.4-1.39-4.86-2.21-7.14-.53-1.45-1.14-2.96-2.18-4.1l-.05-.09-.16-.36c-.22-.47-.41-.96-.57-1.46-1.18-3.55-1-7.6-.64-11.67.41-4.13.83-8.24,1.24-12.34.8-8.21,1.58-16.36,2.36-24.42.78-8.06,1.55-16.04,2.31-23.92l.14-1.48.07-.74.08-.64c.11-.84.3-1.65.62-2.35.62-1.42,1.68-2.42,3.15-2.98,1.46-.56,3.23-.69,4.99-.56.88.06,1.78.19,2.66.37l.66.14.86.21c.4.11.81.24,1.22.38-.33,2.6-.62,7.98-.81,15.31-.13,5.27-.24,11.54-.21,18.53.03,3.48.03,7.17.29,11.02.25,3.83.76,7.9,1.85,11.92,1.07,4.03,2.59,7.76,4.19,11.26,1.66,3.41,3.27,6.7,4.8,9.83,3.08,6.26,5.9,11.87,8.32,16.55,4.84,9.38,8.06,15.06,8.52,14.83.46-.22-1.92-6.31-6.14-15.95-2.11-4.82-4.68-10.54-7.59-16.86-1.46-3.15-3-6.47-4.59-9.9-1.5-3.41-2.92-6.98-3.92-10.73-1.02-3.74-1.52-7.5-1.81-11.22-.3-3.71-.38-7.34-.5-10.81-.22-6.95-.42-13.22-.59-18.48-.26-7.04-.55-12.27-.87-14.98.21.07.42.14.62.21l.75-2.21.19-.55c.03-.09.06-.19.11-.28l.09-.21.2-.5c.29-.66.58-1.33.95-1.95.69-1.26,1.5-2.45,2.46-3.43.95-.99,2.01-1.8,3.16-2.31,1.15-.52,2.38-.64,3.61-.49,1.25.1,2.47.66,3.67,1.29,1.24.72,2.45,1.5,3.57,2.41,2.27,1.78,4.29,3.87,6.06,6.14,3.54,4.55,6.08,9.82,7.54,15.25.36,1.34.68,2.78.99,4.19.3,1.41.6,2.82.9,4.23.29,1.41.56,2.81.82,4.2l.36,2.09.16,1.04.1.72.12,1.01c3.21,2.39,6.39,4.76,9.53,7.1,2.95,2.22,5.87,4.41,8.75,6.59,5.76,4.36,11.38,8.64,16.84,12.85,10.91,8.43,21.21,16.53,30.65,24.44,4.69,3.97,9.24,7.86,13.2,11.92.49.51.94,1.03,1.41,1.54.24.26.41.52.62.78.19.26.45.53.55.77.14.27.27.43.44.77l.52,1.01.52,1,.58.91c.39.6.77,1.2,1.16,1.79.41.57.81,1.14,1.21,1.7.79,1.14,1.63,2.21,2.44,3.29,6.58,8.54,12.94,16.07,18.46,23.07,5.52,6.98,10.39,13.33,13.77,19.3.46.73.79,1.49,1.13,2.23.34.73.68,1.46.97,2.22.58,1.51,1.17,2.94,1.74,4.31,1.14,2.73,2.25,5.19,3.25,7.38,2.02,4.38,3.71,7.68,4.88,9.88,1.18,2.2,1.85,3.31,1.93,3.27.08-.04-.44-1.23-1.46-3.5-1.01-2.28-2.54-5.64-4.4-10.07-.93-2.21-1.95-4.69-3.01-7.44-.53-1.38-1.08-2.81-1.62-4.32-.25-.75-.59-1.53-.94-2.32-.34-.79-.68-1.61-1.13-2.36-3.34-6.23-8.12-12.69-13.56-19.79-5.42-7.11-11.71-14.75-18.12-23.28-.79-1.07-1.61-2.15-2.36-3.26-.39-.55-.77-1.11-1.16-1.67-.36-.57-.72-1.14-1.08-1.71l-.54-.86-.44-.87-.45-.87c-.15-.29-.39-.73-.59-1.08-.88-1.37-1.86-2.44-2.87-3.54-4.07-4.27-8.6-8.2-13.29-12.25-9.42-8.05-19.67-16.25-30.55-24.76-5.44-4.26-11.03-8.58-16.78-12.98-2.88-2.19-5.79-4.41-8.73-6.64-2.77-2.08-5.56-4.19-8.38-6.32l-.05-.4-.16-1.08-.36-2.15c-.25-1.43-.53-2.85-.81-4.28-.3-1.42-.6-2.85-.89-4.28-.31-1.43-.61-2.84-1-4.34-1.56-5.88-4.26-11.54-8.08-16.5-1.92-2.48-4.12-4.78-6.64-6.77-1.25-1.01-2.61-1.9-4.01-2.72-1.49-.79-3.12-1.54-4.96-1.73-1.8-.23-3.76-.02-5.45.74-1.69.74-3.13,1.86-4.34,3.11-1.22,1.25-2.19,2.67-3.01,4.15-.43.73-.77,1.5-1.11,2.28l-.28.69-.05-.02h0s-.17-.04-.17-.04l-.38-.09-.76-.16c-1.02-.21-2.05-.36-3.1-.44-2.1-.15-4.33-.06-6.55.77-1.1.42-2.17,1.05-3.08,1.89-.91.84-1.61,1.89-2.1,2.98-.5,1.09-.77,2.23-.91,3.34l-.1.83-.07.74-.15,1.48c-.77,7.87-1.56,15.84-2.35,23.88-.79,8.05-1.58,16.17-2.38,24.37-.41,4.11-.83,8.24-1.25,12.38-.19,2.1-.34,4.25-.27,6.46.07,2.2.33,4.5,1.08,6.71.21.62.44,1.23.72,1.82l.2.45.05.09.08.15-.52.86c-.36.61-.69,1.22-1.02,1.84-.64,1.25-1.21,2.54-1.69,3.87-.96,2.65-1.61,5.53-1.42,8.52.09,1.48.35,2.9.72,4.25.35,1.37.81,2.68,1.33,3.95.51,1.28,1.08,2.52,1.7,3.73.31.61.63,1.2.96,1.8l.52.91-.09.23c-.15.39-.27.76-.4,1.15-.24.76-.44,1.52-.61,2.28-.35,1.52-.58,3.04-.74,4.56-.32,3.04-.35,6.06-.2,9.05.03.75.08,1.49.15,2.23l.1,1.11.02.27-.03.53c-.07,1.45-.15,2.91-.22,4.35-.13,2.9-.25,5.78-.34,8.66-.19,5.75-.29,11.46-.24,17.13.03,2.84.08,5.67.25,8.5.05,1.41.2,2.83.31,4.25.18,1.42.33,2.87.59,4.24.48,2.78,1.07,5.56,2,8.3.93,2.72,2.22,5.41,4.06,7.74.77.97,1.65,1.84,2.56,2.65-1.84,1.51-6.38,6.14-12.7,12.92-2,2.17-4.19,4.54-6.55,7.09-1.17,1.28-2.38,2.61-3.62,3.97l-.45.5-.06.05-.1.09c-.03.06-.05-.06-.07-.08l-.05-.12c-3.87-6.65-8.27-14.1-12.88-21.8-4.62-7.72-9.08-15.06-13.16-21.7-2.07-3.31-3.91-6.5-5.97-9.38-2.01-2.87-3.95-5.46-5.74-7.81-5.55-7.24-9.67-12.15-11.46-13.89-.06-1.73-.1-3.48-.11-5.23.02-2.22-.02-4.57.28-6.62.38-2.4.49-4.8.58-7.18.15-4.77.12-9.59.04-14.48-.06-2.45-.12-4.92-.18-7.4-.08-2.24-.16-4.5-.24-6.77l1.13-1.08,1.65-1.62c1.1-1.09,2.19-2.21,3.26-3.35,2.14-2.29,4.27-4.63,6.23-7.25.49-.65.96-1.34,1.42-2.04.46-.8.93-1.68,1.16-2.6.53-1.84.52-3.72.24-5.48-.28-1.76-.83-3.43-1.52-5.01-.35-.79-.72-1.56-1.14-2.31-.2-.37-.43-.78-.63-1.1l-.04-.07.05-.06.25-.35.34-.5c.44-.68.83-1.38,1.19-2.1.7-1.43,1.24-2.9,1.7-4.37.45-1.43.92-3.03,1.02-4.78.11-1.77-.31-3.66-1.11-5.21-.77-1.57-1.79-2.87-2.84-4.07-.53-.6-1.07-1.17-1.62-1.73-.6-.57-1.24-1.2-2.01-1.69-1.48-1.02-3.45-1.74-5.45-1.53-.07,0-.14.02-.21.03.04-.61.02-1.19-.03-1.74-.26-2.22-.9-4.13-1.46-6-.29-.94-.56-1.85-.82-2.77l-.36-1.37c-.14-.5-.26-1-.41-1.5-.6-1.99-1.36-3.95-2.45-5.84-.58-.93-1.18-1.87-2-2.71-.8-.84-1.74-1.65-2.93-2.18-1.16-.53-2.53-.83-3.83-.67-.33,0-.63.09-.95.15-.29.06-.67.14-.87.2l-1.42.4c-1.9.53-3.83,1.01-5.77,1.49l-2.92.69-.59.14h-.01s0-.01,0-.01v-.45c.02-.95.02-1.89,0-2.85-.02-.96-.06-1.92-.14-2.91-.04-.5-.1-1-.18-1.53-.1-.57-.21-1.05-.33-1.53-.48-1.94-1.22-3.89-2.25-5.68-1.02-1.8-2.34-3.43-3.83-4.83l-.28-.27-.37-.29c-.25-.19-.5-.39-.76-.56-.54-.28-1.09-.6-1.66-.76-1.13-.42-2.24-.5-3.33-.58-2.15-.05-4.16.28-6.1.7-3.88.86-7.51,2.11-11.17,3.27-5.74,1.9-11.27,3.97-16.83,5.83-5.57,1.85-11.05,3.59-16.67,4.5-2.88.51-5.77,1.09-8.65,1.86-2.87.79-5.75,1.78-8.43,3.32-1.34.76-2.62,1.65-3.79,2.66-1.16,1.02-2.19,2.08-3.18,3.17-1.96,2.18-3.73,4.44-5.43,6.74-3.39,4.59-6.44,9.33-9.27,14.14-.71,1.2-1.39,2.41-2.07,3.62-.67,1.18-1.32,2.34-2.04,3.45-1.41,2.24-2.95,4.31-4.81,5.87-.92.79-1.97,1.45-3.13,2.21-1.16.75-2.36,1.63-3.43,2.62-2.19,2-3.78,4.42-5.07,6.88-1.29,2.48-2.27,5.08-2.91,7.77-.64,2.69-.94,5.48-.7,8.29.12,1.4.39,2.79.81,4.15.2.68.52,1.33.77,1.99l.73,1.67c.38,1.08.76,2.17.8,3.19.07,1.02-.08,1.96-.5,2.89-.82,1.86-2.65,3.7-4.14,5.84-.77,1.06-1.45,2.21-2.06,3.46-.53,1.25-.99,2.53-1.24,3.84-1.12,5.21-.24,10.59,2.09,15.14.58,1.14,1.28,2.21,2.05,3.23.79,1.01,1.66,1.94,2.52,2.77,1.73,1.7,3.82,3.2,5.76,4.39.95.61,1.69,1.15,2.2,1.84.52.68.88,1.6,1.17,2.6.59,2.12,1.23,4.37,1.95,6.49.72,2.14,1.52,4.24,2.45,6.28.94,2.04,1.97,4.03,3.34,5.88.7.91,1.44,1.81,2.39,2.58.87.72,1.66,1.31,2.48,1.98,1.62,1.3,3.19,2.61,4.72,3.94,3.05,2.67,5.91,5.41,8.57,8.22,1.29,1.38,2.7,2.9,4.1,4.19,1.39,1.34,2.8,2.6,4.17,3.87,2.77,2.5,5.49,4.91,8.15,7.22,3.62,3.16,7.11,6.17,10.47,9.04-.04.39-.09.95-.15,1.67-.12,1.57-.27,3.91-.43,6.98-.34,6.13-.77,15.17-1.29,26.79-.49,11.62-1.1,25.83-1.79,42.29-.66,16.69-1.42,35.67-2.25,56.61,14.03,9.42,29.13,19.56,45.15,30.33,2.79,6.29,5.63,12.7,8.52,19.23,62.86.07,136.08.16,214.23.25,30.73-.01,60.7-.03,89.6-.04.96-68.59,1.83-131.26,2.57-183.87-16.94,25.66-32.05,48.53-44.88,67.95Zm-276.93,47.45c-.06-.06-.1-.2-.16-.31-2.27-5.73-4.38-11.08-6.31-15.95-4.02-10.1-7.34-18.25-9.71-23.85-.97-2.28-1.77-4.13-2.41-5.53-1.13-4.33-3.71-8.73-6.71-11.94-2.14-2.91-4.72-5.45-7.83-7.48.15-5.42.28-10.46.41-15.08.08-3.03.14-5.87.21-8.54.08.09.17.17.26.23.19,1.24.48,2.71.85,4.39.57,2.58,1.33,5.63,2.26,8.98.46,1.68.96,3.44,1.5,5.25.27.91.55,1.83.83,2.77.26.83.52,1.67.78,2.51l.11.35c.06.09.23.02.34.04h.75s1.5,0,1.5,0c2.03-.01,4.02-.03,5.93-.04,1.89-.04,3.71-.07,5.45-.11,3.48-.09,6.6-.23,9.23-.4,5.26-.34,8.51-.8,8.51-1.31.06-.01.01-.62-.18-1.79-.19-1.17-.51-2.9-1.03-5.15-.52-2.25-1.21-5.03-2.24-8.26-.52-1.61-1.11-3.34-1.87-5.15-.73-1.82-1.67-3.71-2.91-5.61-.34-.46-.67-.93-1.05-1.4-.43-.43-.86-.87-1.31-1.29-.88-.74-1.78-1.5-2.71-2.28-1.84-1.58-3.77-3.24-5.79-4.97-3.27-2.85-6.79-5.9-10.51-9.14-.42-.44-.86-.84-1.32-1.15-.41-.36-.81-.71-1.23-1.07-4.67-4.09-9.65-8.49-14.89-13.18-2.62-2.35-5.3-4.78-8.02-7.3-1.35-1.27-2.74-2.54-4.08-3.87-1.39-1.31-2.6-2.65-3.96-4.14-2.68-2.9-5.58-5.74-8.66-8.49-1.54-1.38-3.14-2.73-4.77-4.06-.8-.66-1.68-1.34-2.43-1.98-.69-.57-1.31-1.32-1.9-2.1-2.31-3.24-3.89-7.29-5.27-11.4-.69-2.09-1.27-4.15-1.87-6.39-.33-1.17-.77-2.41-1.61-3.57-.85-1.17-2.01-1.98-2.98-2.61-1.97-1.24-3.66-2.48-5.26-4.06-.81-.8-1.54-1.59-2.2-2.44-.65-.87-1.24-1.78-1.73-2.76-1.97-3.89-2.7-8.61-1.72-12.99.21-1.1.61-2.14,1.04-3.16.48-.96,1.06-1.96,1.76-2.91.69-.95,1.45-1.89,2.25-2.89.79-1.01,1.63-2.12,2.26-3.5.63-1.37.91-2.99.8-4.49-.08-1.53-.55-2.88-1.01-4.19l-.8-1.85c-.19-.53-.45-1.04-.61-1.59-.33-1.1-.55-2.24-.65-3.42-.36-4.72,1-9.73,3.3-14.15,1.17-2.22,2.57-4.3,4.36-5.91.91-.83,1.87-1.54,2.98-2.25,1.09-.71,2.34-1.48,3.48-2.45,2.3-1.93,4.03-4.3,5.54-6.67.77-1.19,1.46-2.42,2.15-3.62.67-1.18,1.34-2.37,2.04-3.54,2.78-4.7,5.79-9.35,9.09-13.8,1.65-2.22,3.37-4.41,5.22-6.45.92-1.01,1.88-1.99,2.86-2.85.99-.85,2.07-1.59,3.21-2.25,4.62-2.61,10.27-3.7,15.91-4.74,1.38-.25,2.93-.51,4.37-.86,1.46-.33,2.9-.71,4.33-1.11,2.86-.81,5.68-1.71,8.5-2.65,5.62-1.87,11.2-3.96,16.8-5.81,3.64-1.16,7.26-2.39,10.81-3.18,3.49-.77,7.3-1.13,9.16.81,2.53,2.36,4.22,5.36,5.04,8.73.11.43.2.86.27,1.21.06.4.11.82.15,1.25.07.87.11,1.77.13,2.67.02.9.02,1.81,0,2.73l-.02,1-.04,1.34v.04c-2.13.53-4.24,1.3-6.32,2.1-1.93.53-4.16,1.16-6.66,1.9-8.99,2.67-21.32,6.57-34.83,11.34-3.38,1.24-6.64,2.34-9.88,3.8-3.22,1.54-5.97,3.32-8.59,5.06-5.2,3.49-9.61,6.97-13.24,9.98-3.62,3.02-6.4,5.64-8.21,7.58-1.81,1.94-2.63,3.19-2.45,3.35.2.18,1.35-.7,3.42-2.28,2.08-1.58,5.08-3.86,8.86-6.58,3.78-2.71,8.31-5.93,13.49-9.18,2.58-1.61,5.35-3.29,8.24-4.62,2.92-1.27,6.29-2.4,9.61-3.61,13.45-4.75,25.66-9.05,34.42-12.35,1.3-.49,2.52-.95,3.66-1.39.67-.19,1.33-.39,2-.57,2.46-.7,5.11-1.13,7.53-2.03,1.37-.31,2.75-.61,4.12-.92l2.96-.71c1.97-.48,3.93-.98,5.88-1.53l1.47-.42c.28-.09.39-.09.59-.13.18-.03.36-.1.53-.09.7-.1,1.34.08,1.98.35,1.29.56,2.43,1.92,3.33,3.42.89,1.54,1.58,3.26,2.12,5.03.14.44.25.9.37,1.34l.39,1.47c.27.97.57,1.92.85,2.85.57,1.86,1.14,3.68,1.33,5.31.09.81.04,1.53-.16,2.1-.17.5-.47.91-.9,1.31-.02.02-.04.03-.06.05-1.96.55-3.84,1.38-5.74,2.22-2.48,1.1-5.02,2.19-7.48,3.4-1.2.41-2.45.86-3.77,1.33-5.45,1.96-11.91,4.39-18.99,7.35-1.77.75-3.58,1.52-5.42,2.36-1.83.81-3.74,1.76-5.57,2.61-3.7,1.75-7.64,3.41-11.71,5.08-8.13,3.35-16,6.35-22.95,9.87-.86.46-1.72.92-2.56,1.38-.83.52-1.65.97-2.44,1.53-.39.28-.78.56-1.17.84-.39.27-.75.64-1.12.96l-.55.49-.46.49c-.3.33-.6.65-.89.98-2.29,2.6-4.26,5.1-6.03,7.4-7.04,9.23-10.89,15.28-10.5,15.58.42.32,5.03-5.17,12.53-13.92,1.89-2.17,3.96-4.56,6.26-6.97.29-.29.58-.59.88-.89l.44-.45.45-.37c.31-.24.57-.51.92-.73.35-.23.69-.46,1.05-.69.7-.47,1.51-.87,2.27-1.32.81-.41,1.63-.82,2.46-1.24,6.77-3.22,14.67-6.12,22.84-9.49,4.09-1.68,8.08-3.39,11.88-5.24,1.93-.93,3.66-1.83,5.48-2.67,1.79-.85,3.56-1.65,5.29-2.44,6.37-2.85,12.22-5.33,17.25-7.47.47-.17.95-.34,1.42-.51,3.79-.91,7.58-2.07,11.17-3.41,2.17-.81,4.54-1.54,6.42-2.89.15-.07.29-.14.42-.22h0s.03-.02.05-.03c.27-.16.5-.35.71-.56.02-.01.03-.02.05-.03.25-.16.51-.31.77-.43.53-.25,1.07-.4,1.61-.44,1.08-.12,2.15.25,3.16.93.52.32.97.77,1.47,1.23.52.52,1.01,1.04,1.49,1.58.94,1.07,1.79,2.17,2.34,3.3.58,1.13.82,2.25.76,3.47-.06,1.23-.41,2.52-.85,3.92-.42,1.36-.9,2.68-1.49,3.89-.29.61-.62,1.19-.97,1.74l-.27.41c-.11.16-.13.19-.39.54l-1.01,1.25c-1.43,1.02-2.77,2.24-4.12,3.29-.33.26-.67.51-1.01.76-2.43,1.43-5.42,3.25-8.89,5.38-4.77,2.94-10.44,6.45-16.74,10.34-6.26,3.86-13.42,7.78-20.8,12.13-7.4,4.33-14.39,8.55-20.65,12.59-3.13,2.01-6.07,3.99-8.78,5.93-.67.49-1.34.97-1.99,1.45-.64.5-1.27.99-1.88,1.46-.62.46-1.2.99-1.78,1.49-.59.49-1.11.99-1.61,1.48-8.11,7.81-12.93,12.81-12.58,13.18.35.37,5.81-3.95,14.32-11.22.53-.46,1.08-.92,1.64-1.34.56-.43,1.11-.89,1.74-1.31.61-.43,1.24-.87,1.88-1.32.66-.44,1.32-.88,2-1.33,2.73-1.79,5.7-3.65,8.86-5.57,6.31-3.85,13.33-7.96,20.71-12.28,7.36-4.34,14.47-8.35,20.74-12.44,6.25-4.05,11.76-7.83,16.36-11.04,6.5-4.56,11.14-8.02,13.21-9.81.13.19.26.37.38.57.23.37.4.67.59,1.01.37.66.7,1.35,1.01,2.03.6,1.38,1.07,2.79,1.3,4.19.23,1.4.22,2.77-.13,3.99-.15.63-.45,1.15-.76,1.73-.41.62-.82,1.24-1.28,1.85-1.8,2.44-3.86,4.75-5.94,6.98-1.05,1.12-2.11,2.21-3.18,3.29l-1.61,1.6-.81.79-1.13,1.08c-.72.61-1.38,1.28-1.86,2.07-1.81,1.67-3.67,3.3-5.43,5.01-6.2,5.04-15.13,12.75-24.88,21.59-4.45,4.05-8.65,7.95-12.41,11.59-1.85,1.83-3.61,3.57-5.26,5.2-1.65,1.61-3.19,3.11-4.6,4.48-5.65,5.46-9.14,8.88-8.81,9.28.32.39,4.42-2.32,10.56-7.32,1.53-1.25,3.19-2.65,4.95-4.19,1.75-1.54,3.59-3.23,5.5-4.96,3.86-3.48,8.11-7.32,12.57-11.34,13.91-12.63,25.49-23.69,29.56-28.3.07,1.78.15,3.56.22,5.31.08,2.47.15,4.93.23,7.36.12,4.87.18,9.66.07,14.32-.08,2.33-.17,4.62-.49,6.8-.34,2.54-.26,4.8-.27,7.12.07,4.59.32,9.05.58,13.42.54,8.73,1.23,17.07,1.84,24.99.15,1.98.31,3.94.41,5.84.1,1.95.24,3.88.42,5.77.18,1.89.39,3.75.62,5.58.12.91.24,1.82.36,2.72.12.82.24,1.64.36,2.45l-.21.82-.28,1.04c-.2.69-.4,1.37-.59,2.05-.41,1.36-.84,2.69-1.29,3.99-.89,2.61-1.87,5.11-2.93,7.48-2.11,4.76-4.56,8.95-7.61,12.33-2.98,3.48-6,6.46-9.03,8.88-3.05,2.4-6.1,4.23-8.95,5.63-5.77,2.71-10.63,3.86-13.9,4.5-1.63.38-2.91.51-3.75.69-.84.16-1.27.26-1.27.32,0,.05.45.05,1.31,0,.86-.07,2.15-.1,3.82-.38,3.34-.45,8.32-1.41,14.32-4.01,2.97-1.34,6.17-3.14,9.36-5.55,3.18-2.42,6.35-5.43,9.45-8.9,3.23-3.43,5.91-7.84,8.14-12.66,1.13-2.42,2.16-4.96,3.12-7.61.48-1.32.93-2.68,1.37-4.05.21-.69.42-1.39.64-2.09l.3-1.06.35-1.3c-.13-.95-.26-1.91-.39-2.88-.11-.89-.21-1.79-.32-2.69-.2-1.81-.39-3.65-.54-5.51-.16-1.87-.27-3.75-.35-5.67-.09-1.97-.22-3.92-.35-5.91-.53-7.94-1.13-16.27-1.59-24.97-.11-2.18-.22-4.39-.3-6.62,1.43,2.38,4.29,6.63,8.15,12.31-.08,1.45-.08,4.29,0,8.35.12,6.08.41,14.87.83,25.73.42,10.85.92,23.78,1.47,38.13.06,1.79.11,3.6.14,5.42,0,1.74.02,3.59-.53,4.76-.25.59-.67,1.1-1.29,1.7-.61.59-1.34,1.21-2.07,1.88-1.47,1.31-2.9,2.75-4.23,4.27-1.27,1.5-2.54,3.02-3.83,4.55-1.29,1.5-2.59,3.02-3.9,4.55-2.64,3.05-5.33,6.14-8.04,9.27-10.89,12.51-21.26,24.42-30.69,35.25-2.35,2.71-4.65,5.36-6.88,7.93-.99,1.14-1.96,2.27-2.92,3.38l-.32.4Zm-32.02-100.94c-.02.11-.05.21-.06.33-.07.81-.12,1.61-.15,2.41-.03.14-.06.27-.09.41.02-1.15.05-2.25.06-3.3.07.06.15.11.23.15Zm-.11-14.5s.07.06.11.09c-.04.13-.06.25-.1.37,0-.17,0-.33-.01-.47Zm37.82,49.29s0-.01,0-.02c0,0,0,.03.01.03,0,0,0,0-.01-.01Zm99.5,35.43c-.73,11.45-2.42,22.57-4.61,33.61-2.87-3.94-6.2-7.66-8.99-11.37-5.66-7.54-11.16-15.2-16.49-22.98-.35-.5-1.2-.63-1.52,0-13.57,27.21-26.26,55.05-38.17,83.06-5.62-8.2-11.27-16.38-16.96-24.53-5.56-7.97-10.79-16.44-17.04-23.9.18-.2.36-.41.55-.61,1.23-1.37,2.47-2.76,3.74-4.17,2.27-2.54,4.6-5.15,7-7.83,9.56-10.73,20.03-22.56,30.93-35.08,2.71-3.14,5.4-6.24,8.04-9.3,1.31-1.54,2.62-3.07,3.91-4.59,1.27-1.52,2.52-3.03,3.76-4.52,1.24-1.44,2.53-2.75,3.91-4.01.69-.63,1.41-1.25,2.16-1.99.74-.72,1.56-1.68,2.04-2.84.95-2.34.75-4.33.76-6.24-.05-1.86-.12-3.69-.21-5.49-.68-14.38-1.53-27.29-2.27-38.14-.75-10.84-1.44-19.62-2.01-25.67-.3-3.26-.57-5.72-.79-7.31.16.24.32.47.48.71,1.65,2.44,3.45,5.11,5.31,7.99,1.86,2.84,3.64,6.13,5.62,9.48,3.92,6.73,8.28,14.11,12.9,21.82,4.63,7.73,9.03,14.99,13.17,21.72.48.8.97,1.59,1.44,2.38l.71,1.17.18.29.07.12c2.25,19.39,3.63,38.64,2.38,58.21Zm115.2,1.66c.85-.18,1.7-.35,2.54-.53,3.49-.73,6.85-1.44,10.08-2.12.01,0,.03,0,.04,0,.19-.05.39-.08.59-.13.46-.1.94-.2,1.4-.29,0,0,0-.01,0-.02,1.62-.37,3.26-.7,4.89-1-1.4,1.8-2.89,3.65-4.48,5.53-.53.59-1.07,1.19-1.62,1.79-.55.58-1.13,1.13-1.71,1.71l-.89.74c-.29.25-.59.5-.94.71-.66.47-1.34.84-2.03,1.2-1.39.67-2.77.87-3.79.47-1.04-.4-1.97-1.59-2.65-3.09-.36-.8-.66-1.67-.9-2.57-.14-.44-.23-.9-.33-1.36l-.2-.89-.03-.13h.01Z"/>
</svg>